<svg width="508" height="508" viewBox="0 0 508 508" fill="none" xmlns="http://www.w3.org/2000/svg">
<path d="M254 508C394.28 508 508 394.28 508 254C508 113.72 394.28 0 254 0C113.72 0 0 113.72 0 254C0 394.28 113.72 508 254 508Z" fill="#253AAC"/>
<path d="M354 454H154L185.726 163.725H322.274L354 454Z" fill="#7A8CF4"/>
<path d="M314.772 454H193.228L221.738 163.725H286.154L314.772 454Z" fill="#C5CAE9"/>
<path d="M325.811 163.725H182.189C177.901 163.725 174.472 160.296 174.472 156.01C174.472 151.724 177.901 148.295 182.189 148.295H325.919C330.206 148.295 333.636 151.724 333.636 156.01C333.528 160.296 330.099 163.725 325.811 163.725Z" fill="#CB4A22"/>
<path d="M306.09 81.2181H201.91V148.295H306.09V81.2181Z" fill="#FFD54F"/>
<path d="M280.581 81.2181H227.419V148.295H280.581V81.2181Z" fill="#FFF276"/>
<path d="M313.593 81.2182H194.407C191.621 81.2182 189.37 78.968 189.37 76.182C189.37 73.3961 191.621 71.1459 194.407 71.1459H313.593C316.379 71.1459 318.63 73.3961 318.63 76.182C318.63 78.968 316.379 81.2182 313.593 81.2182Z" fill="#CB4A22"/>
<path d="M306.412 71.1459H202.232L254.322 36L306.412 71.1459Z" fill="#E64A19"/>
<path d="M280.902 71.1459H227.741L254.322 36L280.902 71.1459Z" fill="#FF7042"/>
<path d="M266.219 198.55H241.781V236.481H266.219V198.55Z" fill="#7A8CF4"/>
<path d="M266.219 262.091H241.781V300.023H266.219V262.091Z" fill="#7A8CF4"/>
<path d="M266.219 325.739H241.781V363.671H266.219V325.739Z" fill="#7A8CF4"/>
<path d="M266.219 389.28H241.781V427.212H266.219V389.28Z" fill="#7A8CF4"/>
</svg>
