<svg width="200" height="418" viewBox="0 0 200 418" fill="none" xmlns="http://www.w3.org/2000/svg">
<path d="M200 418H0L31.726 127.725H168.274L200 418Z" fill="#7A8CF4"/>
<path d="M160.772 418H39.228L67.738 127.725H132.154L160.772 418Z" fill="#C5CAE9"/>
<path d="M171.811 127.725H28.189C23.901 127.725 20.472 124.296 20.472 120.01C20.472 115.724 23.901 112.295 28.189 112.295H171.919C176.206 112.295 179.636 115.724 179.636 120.01C179.528 124.296 176.099 127.725 171.811 127.725Z" fill="#CB4A22"/>
<path d="M152.09 45.2181H47.91V112.295H152.09V45.2181Z" fill="#FFD54F"/>
<path d="M126.581 45.2181H73.4189V112.295H126.581V45.2181Z" fill="#FFF276"/>
<path d="M159.593 45.2182H40.407C37.621 45.2182 35.37 42.968 35.37 40.182C35.37 37.3961 37.621 35.1459 40.407 35.1459H159.593C162.379 35.1459 164.63 37.3961 164.63 40.182C164.63 42.968 162.379 45.2182 159.593 45.2182Z" fill="#CB4A22"/>
<path d="M152.412 35.1459H48.2319L100.322 0L152.412 35.1459Z" fill="#E64A19"/>
<path d="M126.902 35.1459H73.741L100.322 0L126.902 35.1459Z" fill="#FF7042"/>
<path d="M112.219 162.55H87.781V200.481H112.219V162.55Z" fill="#7A8CF4"/>
<path d="M112.219 226.091H87.781V264.023H112.219V226.091Z" fill="#7A8CF4"/>
<path d="M112.219 289.739H87.781V327.671H112.219V289.739Z" fill="#7A8CF4"/>
<path d="M112.219 353.28H87.781V391.212H112.219V353.28Z" fill="#7A8CF4"/>
</svg>
